<?xml version="1.0" standalone="no"?>
<!DOCTYPE svg PUBLIC "-//W3C//DTD SVG 20010904//EN"
 "http://www.w3.org/TR/2001/REC-SVG-20010904/DTD/svg10.dtd">
<svg version="1.0" xmlns="http://www.w3.org/2000/svg"
 width="510.000000pt" height="458.000000pt" viewBox="0 0 510.000000 458.000000"
 preserveAspectRatio="xMidYMid meet">

<g transform="translate(0.000000,458.000000) scale(0.100000,-0.100000)"
fill="#000000" stroke="none">
<path d="M1397 4545 c-97 -34 -172 -80 -242 -150 -54 -53 -118 -159 -584 -968
-406 -704 -528 -923 -543 -975 -24 -89 -24 -235 0 -324 15 -51 138 -273 542
-973 317 -548 541 -926 567 -955 50 -56 144 -119 234 -157 l64 -28 1097 -3
c1091 -2 1098 -2 1160 19 100 33 188 87 257 158 57 59 119 161 582 966 286
495 526 921 534 946 37 109 35 287 -4 389 -11 27 -252 454 -537 948 -457 791
-525 904 -579 958 -66 66 -156 121 -252 153 -62 21 -76 21 -1145 21 l-1083 0
-68 -25z m1206 -726 c49 -13 105 -63 128 -114 17 -37 19 -84 19 -711 l0 -671
-23 -44 c-13 -24 -43 -57 -66 -74 -39 -27 -50 -30 -121 -30 -71 0 -82 3 -121
30 -23 17 -53 50 -66 74 l-23 44 0 671 c0 632 2 673 19 711 45 98 147 144 254
114z m-683 -303 c73 -48 102 -168 61 -245 -10 -19 -54 -64 -97 -101 -162 -135
-286 -331 -341 -535 -23 -88 -26 -119 -26 -255 0 -135 3 -167 26 -252 77 -290
262 -524 520 -659 514 -268 1137 -65 1399 456 211 419 100 939 -267 1246 -93
78 -120 122 -119 194 2 108 80 185 190 185 58 0 101 -23 196 -104 237 -202
406 -500 465 -816 26 -140 23 -392 -5 -527 -60 -282 -188 -519 -387 -718 -199
-199 -435 -326 -718 -387 -146 -31 -408 -31 -554 0 -566 121 -984 540 -1105
1105 -28 135 -31 387 -5 527 45 244 151 467 315 663 76 92 210 212 267 239 54
25 133 19 185 -16z"/>
</g>
</svg>
